<?xml version="1.0" encoding="UTF-8"?>
<svg id="Layer_2" data-name="Layer 2" xmlns="http://www.w3.org/2000/svg" xmlns:xlink="http://www.w3.org/1999/xlink" viewBox="0 0 545.9 545.9">
  <defs>
    <style>
      .cls-1 {
        fill: #eb008b;
      }

      .cls-1, .cls-2, .cls-3, .cls-4, .cls-5 {
        stroke-width: 0px;
      }

      .cls-2, .cls-6 {
        fill: #3c4a5c;
      }

      .cls-3 {
        opacity: .8;
      }

      .cls-3, .cls-4, .cls-5 {
        fill: #e1f3fc;
      }

      .cls-4 {
        opacity: .4;
      }

      .cls-5 {
        opacity: .6;
      }

      .cls-7 {
        clip-path: url(#clippath);
      }
    </style>
    <clipPath id="clippath">
      <circle class="cls-2" cx="272.95" cy="272.95" r="272.95" transform="translate(-113.06 272.95) rotate(-45)"/>
    </clipPath>
  </defs>
  <g id="Layer_1-2" data-name="Layer 1">
    <g>
      <circle class="cls-6" cx="272.95" cy="272.95" r="272.95" transform="translate(-113.06 272.95) rotate(-45)"/>
      <g class="cls-7">
        <g>
          <path class="cls-4" d="m298.64,375.19c-186.49,38.66-346.25,28.56-356.85-22.55-10.59-51.11,131.99-123.88,318.48-162.54,186.49-38.66,346.25-28.56,356.85,22.55,10.59,51.11-131.99,123.88-318.48,162.54Zm265.65-169c-8.18-39.45-143.88-44.67-303.1-11.66C101.97,227.53-20.47,286.26-12.29,325.71c8.18,39.45,143.88,44.67,303.1,11.66,159.22-33,281.66-91.74,273.49-131.18Z"/>
          <path class="cls-5" d="m285.45,311.56c-131.95,27.35-244.23,23.92-250.78-7.66-6.55-31.59,95.11-79.36,227.07-106.72,131.95-27.35,244.23-23.92,250.78,7.66,6.55,31.59-95.11,79.36-227.07,106.72Zm175.66-106.29c-4.92-23.72-93.77-25.37-198.46-3.67-104.69,21.7-185.56,58.52-180.65,82.25,4.92,23.72,93.77,25.37,198.46,3.67,104.69-21.7,185.56-58.52,180.65-82.25Z"/>
          <path class="cls-3" d="m275.03,261.26c-77.42,16.05-142.85,16.2-146.13.33-3.29-15.86,56.81-41.73,134.23-57.78,77.42-16.05,142.85-16.2,146.13-.33,3.29,15.86-56.81,41.73-134.23,57.78Zm82.82-57.35c-1.66-8-43.66-6.07-93.81,4.33-50.15,10.4-89.46,25.31-87.81,33.32,1.66,8,43.66,6.07,93.81-4.33,50.15-10.4,89.46-25.31,87.81-33.32Z"/>
        </g>
        <g>
          <path class="cls-1" d="m394.03,221.03c-21.95.06-41.49,13.92-48.81,34.62H117.09c-9.56,0-17.31,7.75-17.31,17.31s7.75,17.31,17.31,17.31h228.13c9.56,27.04,39.23,41.21,66.27,31.65,27.04-9.56,41.21-39.23,31.65-66.27-7.35-20.8-27.04-34.68-49.1-34.62Z"/>
          <path class="cls-1" d="m117.09,186.41h20.42c9.78,26.96,39.57,40.88,66.53,31.09,14.46-5.25,25.85-16.64,31.09-31.09h193.51c9.56,0,17.31-7.75,17.31-17.31s-7.75-17.31-17.31-17.31h-193.51c-9.78-26.96-39.57-40.88-66.53-31.09-14.46,5.25-25.85,16.64-31.09,31.09h-20.42c-9.56,0-17.31,7.75-17.31,17.31s7.75,17.31,17.31,17.31Z"/>
          <path class="cls-1" d="m428.65,359.5h-124.28c-9.78-26.96-39.57-40.88-66.53-31.09-14.46,5.25-25.85,16.64-31.09,31.09h-89.66c-9.56,0-17.31,7.75-17.31,17.31s7.75,17.31,17.31,17.31h89.66c9.78,26.96,39.57,40.88,66.53,31.09,14.46-5.25,25.85-16.64,31.09-31.09h124.28c9.56,0,17.31-7.75,17.31-17.31s-7.75-17.31-17.31-17.31Z"/>
        </g>
      </g>
    </g>
  </g>
</svg>